<?xml version="1.0" encoding="utf-8"?>
<!-- Svg Vector Icons : http://www.onlinewebfonts.com/icon -->
<!DOCTYPE svg PUBLIC "-//W3C//DTD SVG 1.1//EN" "http://www.w3.org/Graphics/SVG/1.1/DTD/svg11.dtd">
<svg version="1.1" xmlns="http://www.w3.org/2000/svg" xmlns:xlink="http://www.w3.org/1999/xlink" x="0px" y="0px" viewBox="0 0 256 256" enable-background="new 0 0 256 256" xml:space="preserve">
<metadata> Svg Vector Icons : http://www.onlinewebfonts.com/icon </metadata>
<g><g><g><path fill="#000000" d="M38.8,3c-2.5,1.6-3.8,4.6-3.8,9v3.7h-7.5c-5,0-8.2,0.3-9.5,0.8c-2.6,1.1-5.2,3.7-6.7,7L10,26.2v78.1c0,70.3,0.1,78.4,1,80.2c1.5,3.2,3.9,5.8,7,7.3l2.8,1.4h31c26.3,0,31-0.1,30.8-0.8c-0.1-0.5-0.4-3.5-0.5-6.7l-0.4-6l-28.9-0.1l-28.9-0.2V122V64.6l70.8-0.2l70.8-0.1V77v12.6h5.6c3,0,6.1,0.2,6.9,0.4l1.3,0.4V59.5c0-18.2-0.3-32-0.6-33.5c-0.8-3.6-3.4-7.2-6.3-8.9c-2.3-1.3-3.1-1.4-10.4-1.4H154v-4.1c0-4.6-1.3-7.3-4.1-8.8c-6-3-11.4,1.5-11.5,9.4v3.5H94.5H50.6V12c0-2-0.4-4.6-0.8-5.7C48.1,2.3,42.6,0.6,38.8,3z M36.1,42c1,2,4.2,3.7,6.7,3.7c4.8,0,7.8-3.8,7.8-9.7l0.1-3.2l2,2.2c4.7,5.3,4.4,12.2-0.8,17.4c-5.4,5.3-12.3,5.5-17.9,0.4c-5.1-4.7-5.7-12.3-1.3-17.6l1.9-2.3l0.4,3.8C35.2,38.8,35.7,41.2,36.1,42z M139.9,42.3c1.3,2,3.8,3.4,6.4,3.4c4.7,0,7.7-3.5,7.7-9.3l0.1-3.7l2,2.2c6.9,7.4,2.1,19.9-8.2,21.3c-11.8,1.6-19.3-13-11.1-21.9L138,33l0.4,3.9C138.6,39,139.3,41.5,139.9,42.3z"/><path fill="#000000" d="M59,82.1v8.7h9h9v-8.7v-8.7h-9h-9V82.1z"/><path fill="#000000" d="M85.4,82.1v8.7h9h9v-8.7v-8.7h-9h-9V82.1z"/><path fill="#000000" d="M112.5,82.1v8.7h8.7h8.7v-8.7v-8.7h-8.7h-8.7V82.1z"/><path fill="#000000" d="M138.9,82.1v8.7h8.7h8.7v-8.7v-8.7h-8.7h-8.7V82.1z"/><path fill="#000000" d="M32.5,108.8v9.1l8.9-0.2l8.8-0.2v-8.7v-8.7l-8.8-0.2l-8.9-0.2V108.8z"/><path fill="#000000" d="M59.1,108.6l0.2,8.9H68h8.7l0.2-8.9l0.2-8.8H68h-9.1L59.1,108.6z"/><path fill="#000000" d="M85.7,100.6c-0.1,0.4-0.2,4.4-0.1,8.9l0.2,8.1l8.9,0.2l8.8,0.2v-9.1v-9h-8.7C88.1,99.8,85.9,100,85.7,100.6z"/><path fill="#000000" d="M112.5,105.2v5.5l3.8-2.9c2.1-1.6,5.5-4,7.5-5.2c2-1.3,3.7-2.3,3.7-2.5s-3.4-0.2-7.5-0.2h-7.5V105.2z"/><path fill="#000000" d="M154.9,102.8c-15.4,3.1-27.7,9.7-38.8,21c-14.2,14.3-21.6,30.7-22.6,50.6c-1.8,35.9,22.4,68.6,57.3,77.5c18.4,4.6,37,2.5,54-6.1c13.8-7,26.6-19.9,33.6-33.8c8.5-17.1,10.1-39.9,4-58.1c-6.4-19.1-20.2-35.1-38.1-44.1c-6.7-3.4-14.2-6-21.1-7.2C175.8,101.2,161.9,101.4,154.9,102.8z M184.1,120.1c21.6,5.8,37.3,21.5,43.3,43.3c1.9,7,1.9,21.8-0.1,29c-5.9,22-23.4,38.9-45.4,43.6c-5.8,1.2-17.6,1.4-22.8,0.3c-24.8-5.1-42.7-23.1-47.9-47.9c-1.1-5.2-0.9-17.1,0.4-22.8c2.9-13.8,11.3-26.9,22.8-35.6c6.6-5,18.2-9.8,27.1-11.2C165.9,118.1,179.6,118.9,184.1,120.1z"/><path fill="#000000" d="M163.7,135.2c-1.1,0.7-2.5,2.1-3.1,3.2c-1.1,1.9-1.2,3.1-1.2,23.6c0,19.8,0.1,21.9,1.1,24.1c0.6,1.3,1.8,3,2.6,3.7c0.8,0.7,10.2,4.5,20.8,8.6c20.6,7.9,21.9,8.2,25.7,5.7c4.8-3.1,5.2-11,0.7-14.5c-0.8-0.6-8.5-3.8-17.1-7.1l-15.7-6v-17.6c0-19.5-0.2-20.5-3.8-23.1C171,133.9,166.3,133.6,163.7,135.2z"/><path fill="#000000" d="M32.5,135.3v9.1l8.9-0.2l8.8-0.2v-8.7v-8.7l-8.8-0.2l-8.9-0.2V135.3z"/><path fill="#000000" d="M59.4,126.6c-0.2,0.2-0.4,4.3-0.4,9.1v8.6h9h9.1l-0.2-8.9l-0.2-8.8l-8.5-0.2C63.6,126.3,59.7,126.4,59.4,126.6z"/><path fill="#000000" d="M85.7,127c-0.1,0.4-0.2,4.4-0.1,8.9c0.2,7.6,0.2,8.1,1.4,8.2c1,0.1,1.4-0.4,2.3-2.5c0.6-1.5,2.8-5.6,4.9-9.1l3.8-6.3h-6C87.6,126.3,85.9,126.5,85.7,127z"/><path fill="#000000" d="M33,153.1c-0.2,0.2-0.4,4.3-0.4,9.1v8.7l8.9-0.2l8.8-0.2v-8.7V153l-8.5-0.2C37.2,152.8,33.2,152.9,33,153.1z"/><path fill="#000000" d="M59.4,153.1c-0.2,0.2-0.4,4.3-0.4,9.1v8.6h9h9.1l-0.2-8.9l-0.2-8.8l-8.5-0.2C63.6,152.8,59.7,152.9,59.4,153.1z"/></g></g></g>
</svg>