<?xml version="1.0" encoding="utf-8"?>
<!-- Generator: Adobe Illustrator 28.2.0, SVG Export Plug-In . SVG Version: 6.00 Build 0)  -->
<svg version="1.1" id="Layer_1" xmlns="http://www.w3.org/2000/svg" xmlns:xlink="http://www.w3.org/1999/xlink" x="0px" y="0px"
	 viewBox="0 0 858.2 853.3" style="enable-background:new 0 0 858.2 853.3;" xml:space="preserve">
<style type="text/css">
	.st0{fill:#088685;}
	.st1{fill:#FC9E26;}
	.st2{fill:#1D2120;}
	.st3{fill:#F1F1ED;}
</style>
<g>
	<path class="st0" d="M220.4,51.7C283.9,16.9,356.6-0.6,429,0c0,59.2,0,118.4,0,177.7c-47,0-94,0-141,0c-3.9,0-7.9,0.2-11.7-0.3
		c0.1-8.3,0.2-16.7,0-25c-0.5-11.7-11.5-21.6-23.2-21.1c-11.9-0.6-23.3,10-23,22c0,8.1,0.1,16.2,0,24.3c-14.7,0.4-29.3,0-44,0.2
		c-11.7,0.6-23.4,5.4-31.3,14.3c-8.7,8.8-12.2,21.3-12.7,33.3c0,104.4,0,208.7,0,313.1c0.4,11.4,4.8,22.8,13,31
		c6.1,6.2,13.9,10.8,22.4,12.7c6.4,1.8,13.1,1.2,19.6,1.3c22.7,0,45.5,0,68.2,0c-8.9,9.5-18.3,18.4-27.4,27.7
		c-37.6,37.6-75.3,75.1-112.8,112.8c-0.4,0.4-1.2,1.1-1.7,1.5c-23.9-24.7-45.5-51.7-63.1-81.3c-20.1-32.8-35.1-68.6-45.3-105.6
		c-8-29.1-12.9-59-14.2-89.1c-1.1-11.3-0.6-22.7-0.7-34c1.3-38,6.5-76,17.5-112.4c16.4-55.2,44.8-106.5,81-151.1
		C132.1,110.8,173.9,76.9,220.4,51.7z"/>
</g>
<g>
	<path class="st1" d="M429,0c61.2-0.3,122.7,11.6,178.6,36.7C668.3,63.8,722,106,763.6,157.8c42,52.3,72.4,114.3,85.8,180.2
		c5.5,26.8,8.6,54.1,8.8,81.4c0.6,31.3-2.2,62.7-8.7,93.4c-9.4,46.7-27.1,91.6-51.8,132.3c-15.1,25-33.1,48-52.7,69.6
		c-16.3,0.6-32.6-0.7-48.9-0.7c-10.4-1.6-21-0.1-31.5-1.2c-6-1.3-12,0-18-1c-2.6-0.4-5.2-0.6-7.7-0.7c1.9-1.2,3.9-2,6-2.8
		c-0.3-0.3-0.8-1-1.1-1.3c51.7-21.6,91.2-69.3,104.2-123.7c7.3-30.7,6.2-63.2-2.2-93.6c-9.4-31.9-28-61-52.8-83.2
		c-27.8-24.8-63.8-40.6-101-43.3c-0.1-45-0.1-89.9,0-134.9c0.3-13.1-3.1-26.9-12.5-36.4c-8.1-9.1-20.2-14.2-32.4-14
		c-13.9,0.1-27.9-0.2-41.8,0.1c-0.4-8.9,0-17.8-0.2-26.7c-1.2-11.6-12.5-20.7-24-20.1c-11.9-0.1-22.7,10.1-23,22
		c0,8.1,0,16.2,0,24.3c-9.7,0.3-19.3,0.1-29,0.1C429,118.5,429,59.2,429,0z"/>
</g>
<g>
	<g>
		<path class="st2" d="M230,153.3c-0.2-12,11.1-22.6,23-22c11.7-0.6,22.7,9.4,23.2,21.1c0.3,8.3,0.1,16.7,0,25
			c3.9,0.5,7.8,0.4,11.7,0.3c47,0,94,0,141,0c9.7,0,19.3,0.2,29-0.1c0-8.1,0-16.2,0-24.3c0.3-11.9,11.1-22.2,23-22
			c11.5-0.6,22.8,8.5,24,20.1c0.2,8.9-0.1,17.8,0.2,26.7c13.9-0.3,27.9-0.1,41.8-0.1c12.1-0.2,24.3,4.9,32.4,14
			c9.5,9.5,12.9,23.4,12.5,36.4c0,45-0.1,89.9,0,134.9c37.3,2.7,73.2,18.4,101,43.3c24.8,22.2,43.4,51.3,52.8,83.2
			c8.4,30.4,9.5,62.9,2.2,93.6c-12.9,54.4-52.4,102.1-104.2,123.7c-22.6,9.7-47.2,14.3-71.8,13.5c-31.7,0.5-63.4-8.2-90.6-24.5
			c-40.9-24.6-72.1-65.8-82.6-112.5c-44.5-0.2-89.1-0.1-133.6,0c-22.7-0.1-45.5,0-68.2,0c-6.6-0.1-13.2,0.5-19.6-1.3
			c-8.5-1.9-16.4-6.4-22.4-12.7c-8.1-8.2-12.6-19.6-13-31c0-104.4,0-208.7,0-313.1c0.4-12.1,4-24.6,12.7-33.3
			c7.9-8.9,19.6-13.7,31.3-14.3c14.7-0.1,29.3,0.2,44-0.2C230,169.4,230,161.4,230,153.3z M175,227.2c0,15.7,0,31.4,0,47.1
			c128,0,256.1,0,384.1,0c0.1-15.3,0-30.7,0-46c0.5-9.3-7.8-17.8-17-18c-12.4,0-24.7,0-37.1,0c0,5,0.1,10,0,15
			c-1.6,9.4-9.3,17.4-18.6,19.3c-10.4,2.3-22-3.5-26.3-13.3c-3.4-6.5-1.5-14-2-21c-60.6,0.1-121.1-0.2-181.7,0.2
			c0.2,4.3,0.3,8.5,0.1,12.8c-0.4,10.4-8.9,19.6-19.1,21.4c-10.4,2.2-21.8-4.1-25.7-14c-2.8-6.4-1.3-13.6-1.6-20.3
			c-12.7,0-25.4,0-38.1,0C183.1,210.6,175.2,218.4,175,227.2z M175,307.1c0,75.1,0,150.2,0,225.3c-0.2,9.4,8.7,17.6,18,17.1
			c67,0,134,0,201,0c0-6.4,0-12.8,0-19.1c1.2-29.1,9.9-57.9,25.4-82.6c20.1-31.8,49.9-57.9,84.9-72.1c17.4-7,35.9-12,54.7-12.3
			c0.2-18.7,0-37.5,0.1-56.2c-18-0.2-36,0-54-0.1C395,307,285,306.9,175,307.1z M565.5,397c-31.1,1.5-61.6,13.5-85.5,33.4
			c-28.7,23.7-47.9,58.8-51.1,96c-3.6,34,5.1,69.2,24.8,97.2c20.9,30.4,53.8,52.4,89.9,59.9c14.1,2.8,28.7,3.4,43,2.3
			c32-2.6,63-16.5,86.1-38.8c20.7-19.6,35.7-45.4,41.7-73.3c6.5-30.9,3.8-63.9-9.2-92.8c-16.8-38.2-51.5-68-91.8-79.1
			C598,397.6,581.7,396.1,565.5,397z"/>
	</g>
	<path class="st2" d="M224.4,347.8c1.5-0.5,3.1-0.5,4.6-0.5c9,0,18,0,27.1,0c6.8,0.8,12.5,7.1,12.3,14c0.1,9,0.1,18,0,27
		c0.1,7.2-6.3,13.6-13.3,14c-9,0-18.1,0-27.1,0c-7.8,0.2-14.5-7.3-14-15c0-9.6-0.2-19.3,0.2-28.9
		C215.4,353.4,219.4,349.2,224.4,347.8z"/>
	<path class="st2" d="M310.4,347.7c9.5-0.9,19.1-0.1,28.7-0.4c6-0.7,11.7,3.5,14.2,8.8c1.2,2.6,0.9,5.5,1.1,8.2
		c-0.1,8,0.1,16-0.1,24c0.3,7.2-6.1,13.5-13.1,14c-9.4,0-18.8,0-28.1,0c-5.1-0.1-9.5-3.9-11.8-8.2c-2.9-6.5-1.5-13.9-1.8-20.8
		c0.3-5.3-0.7-10.7,0.7-15.8C301.8,352.9,305.6,349,310.4,347.7z"/>
	<path class="st2" d="M393.4,347.7c9.5-0.9,19.1-0.1,28.7-0.4c6.3-0.6,12.5,3.5,14.7,9.4c2.2,6.3,1,13.1,1.3,19.6
		c-0.3,6,1,12.5-1.9,18c-2.5,5.2-8.3,8.4-14,8c-8.7,0-17.4,0-26.1,0c-7.3-0.8-13.6-7.5-13.3-15c0-8.7,0-17.3,0-26
		C382.7,355.1,387.5,349.4,393.4,347.7z"/>
	<path class="st2" d="M225.4,429.8c8.5-1.1,17.1-0.2,25.6-0.5c5.7-0.5,12,1.9,15,7c2.5,3.5,2.4,7.9,2.4,12c-0.1,7.3,0.1,14.7-0.1,22
		c0.1,6.9-5.7,13-12.3,14c-9.4,0.2-18.7,0-28.1,0.1c-5.5,0.4-10.4-3.6-12.8-8.3c-1.6-3-1.2-6.5-1.3-9.8c0.1-8.3-0.1-16.7,0.2-25
		C214.8,435.5,219.8,431.1,225.4,429.8z"/>
	<path class="st2" d="M312.4,429.7c8.1-0.9,16.5-0.1,24.7-0.4c6-0.5,12.5,2.3,15.2,7.8c2.2,3.3,2,7.4,2,11.2
		c-0.1,7.3,0.1,14.7-0.1,22c0.2,7.8-7.4,14.8-15.2,14c-9-0.1-18,0.1-27-0.1c-7.1-1.1-12.6-7.9-12.6-15c-0.1-8-0.1-15.9,0-23.9
		C299.4,438,305.1,431.1,312.4,429.7z"/>
	<path class="st2" d="M555,446.3c1.9-7.5,9.1-13.5,17-13c8.1-0.5,15.7,6.1,17,14c0.1,27.3,0,54.6,0,81.9
		c21.7,15,43.6,29.8,65.3,44.9c4.5,3,7.8,7.9,8.7,13.3c0.8,6.8-2.9,13.8-8.9,17.2c-4.3,2.8-9.9,2.7-14.8,1.6
		c-4.2-1.4-7.6-4.3-11.3-6.7c-21.3-14.7-42.7-29.2-64-44c-5.3-3.6-9.7-9.3-9.7-16c0-27,0-54,0-81.1
		C554.3,454.3,553.9,450.2,555,446.3z"/>
</g>
<g>
	<path class="st3" d="M175,227.2c0.2-8.9,8.1-16.6,16.9-16.9c12.7,0,25.4,0,38.1,0c0.3,6.8-1.2,13.9,1.6,20.3
		c3.9,9.9,15.3,16.2,25.7,14c10.2-1.7,18.7-10.9,19.1-21.4c0.1-4.3,0.1-8.5-0.1-12.8c60.6-0.4,121.1-0.1,181.7-0.2
		c0.5,7-1.4,14.5,2,21c4.3,9.8,15.9,15.6,26.3,13.3c9.3-1.9,17-10,18.6-19.3c0.1-5,0-10,0-15c12.4,0,24.7,0,37.1,0
		c9.2,0.2,17.5,8.7,17,18c0,15.3,0.1,30.7,0,46c-128,0-256.1,0-384.1,0C175,258.6,175,242.9,175,227.2z"/>
	<g>
		<path class="st3" d="M175,307.1c110-0.2,220,0,330-0.1c18,0.1,36-0.1,54,0.1c-0.1,18.7,0.2,37.5-0.1,56.2
			c-18.8,0.3-37.3,5.3-54.7,12.3c-35,14.2-64.8,40.3-84.9,72.1c-15.5,24.7-24.1,53.5-25.4,82.6c0,6.4,0,12.7,0,19.1
			c-67,0-134,0-201,0c-9.3,0.5-18.2-7.7-18-17.1C175,457.3,175,382.2,175,307.1z M224.4,347.8c-5,1.4-9,5.7-10.3,10.6
			c-0.4,9.6-0.2,19.3-0.2,28.9c-0.5,7.7,6.3,15.2,14,15c9,0,18.1,0,27.1,0c7-0.5,13.4-6.9,13.3-14c0.1-9,0.1-18,0-27
			c0.2-6.9-5.6-13.2-12.3-14c-9-0.1-18,0-27.1,0C227.4,347.3,225.9,347.2,224.4,347.8z M310.4,347.7c-4.8,1.3-8.6,5.2-10.2,9.8
			c-1.4,5.2-0.4,10.6-0.7,15.8c0.3,6.9-1.1,14.2,1.8,20.8c2.3,4.4,6.6,8.1,11.8,8.2c9.4,0,18.8,0,28.1,0c7-0.5,13.4-6.8,13.1-14
			c0.1-8,0-16,0.1-24c-0.1-2.8,0.2-5.7-1.1-8.2c-2.5-5.3-8.1-9.5-14.2-8.8C329.5,347.6,319.8,346.8,310.4,347.7z M393.4,347.7
			c-5.9,1.7-10.7,7.3-10.7,13.6c0,8.7,0,17.3,0,26c-0.4,7.5,6,14.2,13.3,15c8.7,0,17.4,0,26.1,0c5.7,0.4,11.5-2.8,14-8
			c3-5.5,1.6-12,1.9-18c-0.3-6.5,0.9-13.3-1.3-19.6c-2.1-5.9-8.4-10-14.7-9.4C412.5,347.6,402.9,346.8,393.4,347.7z M225.4,429.8
			c-5.5,1.3-10.6,5.7-11.4,11.5c-0.3,8.3,0,16.7-0.2,25c0.1,3.3-0.3,6.8,1.3,9.8c2.4,4.7,7.3,8.6,12.8,8.3
			c9.4-0.1,18.7,0.1,28.1-0.1c6.7-1,12.5-7.1,12.3-14c0.2-7.3,0-14.6,0.1-22c-0.1-4.1,0-8.5-2.4-12c-3-5.1-9.3-7.5-15-7
			C242.5,429.6,233.8,428.7,225.4,429.8z M312.4,429.7c-7.3,1.3-12.9,8.2-12.9,15.6c-0.1,8,0,15.9,0,23.9c0,7.1,5.5,13.9,12.6,15
			c9,0.1,18,0,27,0.1c7.7,0.7,15.4-6.2,15.2-14c0.1-7.3,0-14.7,0.1-22c0-3.8,0.2-7.9-2-11.2c-2.8-5.5-9.3-8.3-15.2-7.8
			C328.8,429.6,320.5,428.8,312.4,429.7z"/>
	</g>
	<g>
		<path class="st3" d="M565.5,397c16.1-0.8,32.5,0.6,48.1,4.9c40.2,11.1,74.9,40.8,91.8,79.1c13,28.9,15.7,61.9,9.2,92.8
			c-6.1,27.9-21,53.7-41.7,73.3c-23.1,22.3-54.1,36.2-86.1,38.8c-14.3,1.1-28.9,0.5-43-2.3c-36.2-7.5-69-29.5-89.9-59.9
			c-19.7-28-28.4-63.3-24.8-97.2c3.2-37.2,22.4-72.3,51.1-96C503.9,410.4,534.4,398.4,565.5,397z M555,446.3c-1.1,3.9-0.6,8-0.7,12
			c0,27,0,54,0,81.1c0,6.7,4.4,12.4,9.7,16c21.2,14.8,42.7,29.3,64,44c3.6,2.4,7.1,5.3,11.3,6.7c4.9,1.1,10.4,1.2,14.8-1.6
			c6-3.3,9.7-10.4,8.9-17.2c-0.8-5.4-4.1-10.3-8.7-13.3c-21.7-15.1-43.6-29.9-65.3-44.9c0-27.3,0-54.6,0-81.9
			c-1.3-7.9-8.8-14.5-17-14C564.1,432.8,556.8,438.8,555,446.3z"/>
	</g>
	<path class="st3" d="M265.2,583.4c44.5,0,89-0.1,133.6,0c10.6,46.7,41.7,87.9,82.6,112.5c27.2,16.3,58.9,25.1,90.6,24.5
		c24.5,0.8,49.2-3.9,71.8-13.5c0.3,0.3,0.8,1,1.1,1.3c-2.1,0.7-4.1,1.6-6,2.8c2.6,0.1,5.2,0.2,7.7,0.7c6,1,12-0.2,18,1
		c10.5,1.1,21-0.4,31.5,1.2c16.3,0,32.6,1.3,48.9,0.7c-2.4,1.6-3.2,4.6-5.3,6.5c-6,6-12,12-18,18c-7.1,5.8-13.7,12.4-21,18
		c-30.2,24.7-64.1,44.6-99.9,60c-38.5,16.5-79.3,28.1-120.9,32.9c-7,0.9-14,1.2-20.9,2.1c-12,0.3-24,1.6-36,1.1
		c-7.4,0.4-14.6-1.3-22-0.9c-55.2-3.8-109.9-17.8-159.6-42.3c-25.9-12.8-50.5-28.1-73.8-45.2c-14.6-12-29.3-23.9-42.2-37.7
		c-0.1-1.1-0.2-2.1-0.4-3.1c37.5-37.7,75.2-75.2,112.8-112.8C246.9,601.8,256.4,592.9,265.2,583.4z"/>
</g>
</svg>
