<?xml version="1.0" encoding="UTF-8"?>
<svg id="Capa_1" data-name="Capa 1" xmlns="http://www.w3.org/2000/svg" xmlns:xlink="http://www.w3.org/1999/xlink" viewBox="0 0 592.23 90.78">
  <defs>
    <style>
      .cls-1 {
        fill: url(#Degradado_sin_nombre_2-2);
      }

      .cls-1, .cls-2, .cls-3, .cls-4, .cls-5, .cls-6 {
        stroke-width: 0px;
      }

      .cls-2 {
        fill: #52c2e5;
      }

      .cls-3 {
        fill: none;
      }

      .cls-4 {
        fill: url(#Degradado_sin_nombre_2-3);
      }

      .cls-5 {
        fill: url(#Degradado_sin_nombre_2);
      }

      .cls-6 {
        fill: #898e94;
      }
    </style>
    <linearGradient id="Degradado_sin_nombre_2" data-name="Degradado sin nombre 2" x1="0" y1="31.04" x2="65.64" y2="31.04" gradientUnits="userSpaceOnUse">
      <stop offset="0" stop-color="#0d77a6"/>
      <stop offset="1" stop-color="#013f61"/>
    </linearGradient>
    <linearGradient id="Degradado_sin_nombre_2-2" data-name="Degradado sin nombre 2" x1="24.28" y1="79.75" x2="75.19" y2="79.75" xlink:href="#Degradado_sin_nombre_2"/>
    <linearGradient id="Degradado_sin_nombre_2-3" data-name="Degradado sin nombre 2" x1="58.02" y1="31.27" x2="99.65" y2="31.27" xlink:href="#Degradado_sin_nombre_2"/>
  </defs>
  <path class="cls-5" d="M3.8,2.94c1.33-.27,2.15.87,3.05,1.61,14.09,11.61,27.86,23.61,42.18,34.94,2.75-1.58,6.18-2.32,9.24-1.15,5.52,1.68,8.78,8.22,6.78,13.64-1.55,5.04-7.32,8.26-12.42,6.87-1.63-.42-3.18-1.15-4.5-2.21-1.89-1.4-2.65-3.78-4.45-5.27C29.4,37.66,15.79,23.23,1.43,9.61-1.57,7.82.6,2.91,3.8,2.94ZM54.03,44.85c-3.29.87-3.77,5.86-.59,7.18,3.01,1.64,6.53-2.08,5.06-5.07-.64-1.75-2.73-2.57-4.47-2.12Z"/>
  <path class="cls-1" d="M75.19,90.14l-11.27-11.27c-2.81.82-5.78,1.27-8.85,1.27-9.46,0-17.93-4.17-23.72-10.76l-7.07,7.07c7.51,8.29,18.32,13.54,30.34,13.67l-.02.02h20.59Z"/>
  <rect class="cls-3" x="85.8" y="7.15" width="42.27" height="82.89" transform="translate(213.87 97.19) rotate(180)"/>
  <path class="cls-4" d="M88.63,24.14c-7.02-9.61-18.05-16.1-30.61-16.99v10.03c14.31,1.33,25.83,12.21,28.16,26.2l.06-.06v3.97c-.01.43-.03.86-.03,1.29s.02.86.03,1.29v5.52l10.39-10.14c.4-3.68,1.44-7.16,3.02-10.35l-11.02-10.76Z"/>
  <g>
    <g>
      <path class="cls-6" d="M144.72,61.11h31.21v-20.03h8.89v49.01h-8.89v-20.03h-31.21v20.03h-8.89v-49.01h8.89v20.03Z"/>
      <path class="cls-6" d="M244.18,57.56c0,2.03-.25,3.84-.75,5.43-.5,1.6-1.18,3-2.03,4.22s-1.84,2.26-2.96,3.13c-1.12.87-2.28,1.58-3.5,2.14-1.22.56-2.45.96-3.69,1.21-1.24.25-2.41.38-3.5.38l18.56,16.03h-13.74l-18.53-16.03h-6.39v-8.89h20.1c1.12-.09,2.14-.32,3.06-.7s1.72-.88,2.39-1.52c.67-.64,1.19-1.41,1.55-2.31.37-.9.55-1.93.55-3.09v-5.61c0-.5-.06-.88-.19-1.14s-.29-.46-.48-.58-.4-.2-.62-.22c-.22-.02-.42-.03-.6-.03h-29.33v40.13h-8.89v-44.54c0-.62.11-1.2.34-1.74.23-.55.54-1.03.94-1.44s.87-.73,1.42-.96c.55-.23,1.14-.34,1.78-.34h33.74c1.98,0,3.66.36,5.02,1.08s2.48,1.62,3.33,2.7,1.47,2.25,1.85,3.5c.38,1.25.56,2.43.56,3.52v5.67Z"/>
      <path class="cls-6" d="M304.54,70.27c0,2.99-.51,5.73-1.54,8.24-1.03,2.51-2.45,4.67-4.27,6.49-1.82,1.82-3.98,3.24-6.48,4.26s-5.21,1.52-8.15,1.52h-12.03c-2.94,0-5.66-.51-8.17-1.52-2.51-1.01-4.67-2.43-6.49-4.26-1.82-1.82-3.25-3.99-4.29-6.49-1.04-2.51-1.56-5.25-1.56-8.24v-9.37c0-2.96.52-5.7,1.56-8.22,1.04-2.52,2.47-4.68,4.29-6.49,1.82-1.81,3.99-3.23,6.49-4.26,2.51-1.03,5.23-1.54,8.17-1.54h12.03c2.94,0,5.66.51,8.15,1.54s4.65,2.44,6.48,4.26c1.82,1.81,3.25,3.98,4.27,6.49s1.54,5.26,1.54,8.22v9.37ZM295.65,60.91c0-1.75-.28-3.34-.84-4.77-.56-1.42-1.34-2.64-2.36-3.66s-2.23-1.8-3.66-2.36c-1.42-.56-2.99-.84-4.7-.84h-12.03c-1.73,0-3.31.28-4.73.84-1.42.56-2.65,1.34-3.67,2.36s-1.82,2.23-2.38,3.66-.84,3.01-.84,4.77v9.37c0,1.75.28,3.34.84,4.77s1.35,2.64,2.38,3.66,2.25,1.8,3.67,2.36c1.42.56,3,.84,4.73.84h11.96c1.73,0,3.31-.28,4.73-.84s2.65-1.34,3.67-2.36,1.82-2.23,2.38-3.66c.56-1.42.84-3.01.84-4.77v-9.37Z"/>
      <path class="cls-6" d="M362.3,86.3c0,.64-.12,1.23-.36,1.78s-.56,1.02-.96,1.42c-.4.4-.87.71-1.42.94s-1.13.34-1.74.34c-.55,0-1.1-.1-1.66-.31s-1.05-.54-1.49-.99l-32.47-33.91v34.52h-8.89v-45.22c0-.91.26-1.74.77-2.48s1.17-1.29,1.97-1.66c.84-.34,1.71-.43,2.6-.26s1.65.59,2.29,1.25l32.47,33.87v-34.52h8.89v45.22Z"/>
      <path class="cls-6" d="M424.07,70.27c0,2.99-.51,5.73-1.54,8.24-1.03,2.51-2.45,4.67-4.27,6.49-1.82,1.82-3.98,3.24-6.48,4.26s-5.21,1.52-8.15,1.52h-12.03c-2.94,0-5.66-.51-8.17-1.52-2.51-1.01-4.67-2.43-6.49-4.26s-3.25-3.99-4.29-6.49c-1.04-2.51-1.55-5.25-1.55-8.24v-9.37c0-2.96.52-5.7,1.55-8.22s2.47-4.68,4.29-6.49c1.82-1.81,3.99-3.23,6.49-4.26,2.51-1.03,5.23-1.54,8.17-1.54h12.03c2.94,0,5.66.51,8.15,1.54s4.65,2.44,6.48,4.26c1.82,1.81,3.25,3.98,4.27,6.49s1.54,5.26,1.54,8.22v9.37ZM415.18,60.91c0-1.75-.28-3.34-.84-4.77s-1.34-2.64-2.36-3.66c-1.01-1.01-2.23-1.8-3.66-2.36s-2.99-.84-4.7-.84h-12.03c-1.73,0-3.31.28-4.73.84s-2.65,1.34-3.67,2.36-1.82,2.23-2.38,3.66c-.56,1.42-.84,3.01-.84,4.77v9.37c0,1.75.28,3.34.84,4.77.56,1.42,1.35,2.64,2.38,3.66s2.25,1.8,3.67,2.36,3,.84,4.73.84h11.96c1.73,0,3.31-.28,4.73-.84,1.42-.56,2.65-1.34,3.67-2.36s1.82-2.23,2.38-3.66.84-3.01.84-4.77v-9.37Z"/>
      <path class="cls-6" d="M477.87,90.1h-40.54c-.64,0-1.23-.11-1.78-.34-.55-.23-1.02-.54-1.42-.94-.4-.4-.71-.87-.94-1.42-.23-.55-.34-1.14-.34-1.78v-44.54h8.89v40.13h36.13v8.89Z"/>
      <path class="cls-6" d="M535.08,70.27c0,2.99-.51,5.73-1.54,8.24-1.03,2.51-2.45,4.67-4.27,6.49-1.82,1.82-3.98,3.24-6.48,4.26s-5.21,1.52-8.15,1.52h-12.03c-2.94,0-5.66-.51-8.17-1.52-2.51-1.01-4.67-2.43-6.49-4.26s-3.25-3.99-4.29-6.49c-1.04-2.51-1.55-5.25-1.55-8.24v-9.37c0-2.96.52-5.7,1.55-8.22s2.47-4.68,4.29-6.49c1.82-1.81,3.99-3.23,6.49-4.26,2.51-1.03,5.23-1.54,8.17-1.54h12.03c2.94,0,5.66.51,8.15,1.54s4.65,2.44,6.48,4.26c1.82,1.81,3.25,3.98,4.27,6.49s1.54,5.26,1.54,8.22v9.37ZM526.2,60.91c0-1.75-.28-3.34-.84-4.77s-1.34-2.64-2.36-3.66c-1.01-1.01-2.23-1.8-3.66-2.36s-2.99-.84-4.7-.84h-12.03c-1.73,0-3.31.28-4.73.84s-2.65,1.34-3.67,2.36-1.82,2.23-2.38,3.66c-.56,1.42-.84,3.01-.84,4.77v9.37c0,1.75.28,3.34.84,4.77.56,1.42,1.35,2.64,2.38,3.66s2.25,1.8,3.67,2.36,3,.84,4.73.84h11.96c1.73,0,3.31-.28,4.73-.84,1.42-.56,2.65-1.34,3.67-2.36s1.82-2.23,2.38-3.66.84-3.01.84-4.77v-9.37Z"/>
      <path class="cls-6" d="M592.23,85.62c0,.64-.12,1.23-.34,1.78-.23.55-.54,1.02-.94,1.42-.4.4-.87.71-1.42.94-.55.23-1.14.34-1.78.34h-32.06c-.82,0-1.7-.1-2.65-.29s-1.88-.5-2.8-.91-1.81-.94-2.65-1.59c-.84-.65-1.59-1.44-2.24-2.36s-1.17-1.99-1.56-3.21c-.39-1.22-.58-2.59-.58-4.12v-24.06c0-.82.1-1.7.29-2.65.19-.95.5-1.88.91-2.8s.95-1.81,1.61-2.65c.66-.84,1.45-1.59,2.38-2.24s1.99-1.17,3.2-1.56c1.21-.39,2.58-.58,4.1-.58h36.13v8.89h-36.13c-1.16,0-2.05.31-2.67.92s-.92,1.53-.92,2.73v23.99c0,1.14.31,2.02.94,2.65s1.51.94,2.65.94h27.65v-11.14h-23.65v-8.96h28.06c.64,0,1.23.12,1.78.36s1.02.56,1.42.97c.4.41.71.88.94,1.42.23.54.34,1.11.34,1.73v20.03Z"/>
    </g>
    <path class="cls-6" d="M128.07,80.13c-4.49,0-8.76-.95-12.63-2.64h0c-.42-.19-.84-.38-1.25-.58-8.44-4.15-14.76-11.96-16.88-21.36l-10.74,10.74v2.19c0,11.96,9.7,21.65,21.65,21.65h19.86,0v-10Z"/>
    <path class="cls-6" d="M128.07,6.99h-20.19c-6.89,0-12.99,3.28-16.89,8.35l12.94,12.94c5.79-6.88,14.45-11.25,24.14-11.25V7.03s-.03,0-.04,0l.04-.04Z"/>
  </g>
  <path class="cls-2" d="M17.62,3.4l21.35,18.07c3.42-2.04,7.24-3.46,11.34-4.08v-8.52L59.19,0,17.62,3.4Z"/>
  <path class="cls-2" d="M24.04,42.83L1.61,20.4l3.1,37.84,8.84-8.84c.15,7.61,2.33,14.73,6.06,20.81l7.34-7.34c-2.19-4.29-3.43-9.14-3.43-14.29,0-1.96.18-3.88.52-5.75Z"/>
</svg>