<?xml version="1.0" encoding="UTF-8"?>
<svg id="Capa_1" data-name="Capa 1" xmlns="http://www.w3.org/2000/svg" xmlns:xlink="http://www.w3.org/1999/xlink" viewBox="0 0 99.65 99.65">
  <defs>
    <style>
      .cls-1 {
        fill: url(#Degradado_sin_nombre_2-2);
      }

      .cls-1, .cls-2, .cls-3, .cls-4 {
        stroke-width: 0px;
      }

      .cls-2 {
        fill: #52c2e5;
      }

      .cls-3 {
        fill: url(#Degradado_sin_nombre_2-3);
      }

      .cls-4 {
        fill: url(#Degradado_sin_nombre_2);
      }
    </style>
    <linearGradient id="Degradado_sin_nombre_2" data-name="Degradado sin nombre 2" x1="0" y1="35.8" x2="65.64" y2="35.8" gradientUnits="userSpaceOnUse">
      <stop offset="0" stop-color="#0d77a6"/>
      <stop offset="1" stop-color="#013f61"/>
    </linearGradient>
    <linearGradient id="Degradado_sin_nombre_2-2" data-name="Degradado sin nombre 2" x1="24.28" y1="84.51" x2="75.19" y2="84.51" xlink:href="#Degradado_sin_nombre_2"/>
    <linearGradient id="Degradado_sin_nombre_2-3" data-name="Degradado sin nombre 2" x1="58.02" y1="36.03" x2="99.65" y2="36.03" xlink:href="#Degradado_sin_nombre_2"/>
  </defs>
  <path class="cls-4" d="M3.8,7.7c1.33-.27,2.15.87,3.05,1.61,14.09,11.61,27.86,23.61,42.18,34.94,2.75-1.58,6.18-2.32,9.24-1.15,5.52,1.68,8.78,8.22,6.78,13.64-1.55,5.04-7.32,8.26-12.42,6.87-1.63-.42-3.18-1.15-4.5-2.21-1.89-1.4-2.65-3.78-4.45-5.27C29.4,42.41,15.79,27.99,1.43,14.37c-3-1.79-.82-6.7,2.37-6.67ZM54.03,49.61c-3.29.87-3.77,5.86-.59,7.18,3.01,1.64,6.53-2.08,5.06-5.07-.64-1.75-2.73-2.57-4.47-2.12Z"/>
  <path class="cls-1" d="M75.19,94.89l-11.27-11.27c-2.81.82-5.78,1.27-8.85,1.27-9.46,0-17.93-4.17-23.72-10.76l-7.07,7.07c7.51,8.29,18.32,13.54,30.34,13.67l-.02.02h20.59Z"/>
  <path class="cls-3" d="M88.63,28.9c-7.02-9.61-18.05-16.1-30.61-16.99v10.03c14.31,1.33,25.83,12.21,28.16,26.2l.06-.06v3.97c-.01.43-.03.86-.03,1.29s.02.86.03,1.29v5.52l10.39-10.14c.4-3.68,1.44-7.16,3.02-10.35l-11.02-10.76Z"/>
  <path class="cls-2" d="M17.62,8.16l21.35,18.07c3.42-2.04,7.24-3.46,11.34-4.08v-8.52l8.87-8.87-41.56,3.4Z"/>
  <path class="cls-2" d="M24.04,47.59L1.61,25.16l3.1,37.84,8.84-8.84c.15,7.61,2.33,14.73,6.06,20.81l7.34-7.34c-2.19-4.29-3.43-9.14-3.43-14.29,0-1.96.18-3.88.52-5.75Z"/>
</svg>